<?xml version="1.0" encoding="utf-8"?>
<!-- Generator: Adobe Illustrator 21.0.2, SVG Export Plug-In . SVG Version: 6.00 Build 0)  -->
<svg version="1.1" id="Слой_1" xmlns="http://www.w3.org/2000/svg" xmlns:xlink="http://www.w3.org/1999/xlink" x="0px" y="0px"
	 viewBox="0 0 169.9 62.8" style="enable-background:new 0 0 169.9 62.8;" xml:space="preserve">
<style type="text/css">
	.st0{fill:url(#SVGID_1_);}
	.st1{fill:url(#SVGID_2_);}
</style>
<radialGradient id="SVGID_1_" cx="-592.2217" cy="423.6097" r="1" gradientTransform="matrix(105 0 0 -343.094 62214.5664 145345.25)" gradientUnits="userSpaceOnUse">
	<stop  offset="0" style="stop-color:#30A8DF"/>
	<stop  offset="1" style="stop-color:#FFFFFF"/>
</radialGradient>
<path class="st0" d="M32.7,17.3V0h13.7c0.8,0,1.5,0.3,2,0.8s0.8,1.2,0.8,2v3.7c0,0.2,0,0.4-0.1,0.7c0,0.2-0.1,0.4-0.2,0.6
	c0.4,0.5,0.6,1,0.8,1.4C49.9,9.6,50,10,50,10.4v4c0,0.8-0.3,1.5-0.8,2c-0.6,0.6-1.2,0.8-2,0.8H32.7z M35.6,15.3h11.5
	c0.3,0,0.5-0.1,0.6-0.3c0.2-0.2,0.3-0.4,0.3-0.7v-4c0-0.3-0.1-0.5-0.3-0.6c-0.2-0.2-0.4-0.3-0.6-0.3H35.6c-0.3,0-0.5,0.1-0.7,0.3
	c-0.2,0.2-0.3,0.4-0.3,0.6v4c0,0.3,0.1,0.5,0.3,0.7C35.1,15.2,35.3,15.3,35.6,15.3z M35.6,7.5h10.8c0.3,0,0.5-0.1,0.6-0.3
	c0.2-0.2,0.3-0.4,0.3-0.7V2.9c0-0.3-0.1-0.5-0.3-0.6c-0.2-0.2-0.4-0.3-0.6-0.3H35.6c-0.3,0-0.5,0.1-0.7,0.3
	c-0.2,0.2-0.3,0.4-0.3,0.6v3.7c0,0.3,0.1,0.5,0.3,0.7C35.1,7.4,35.3,7.5,35.6,7.5z M63.7,17.3c-0.8,0-1.5-0.3-2-0.8
	c-0.6-0.6-0.8-1.2-0.8-2V0h1.9v14.4c0,0.3,0.1,0.5,0.3,0.7c0.2,0.2,0.4,0.3,0.7,0.3h11.5c0.3,0,0.5-0.1,0.6-0.3
	c0.2-0.2,0.3-0.4,0.3-0.7V0h1.9v14.4c0,0.8-0.3,1.5-0.8,2c-0.6,0.6-1.2,0.8-2,0.8H63.7z M88.9,17.3v-2.7L104,1.9H88.9V0h17.3v2.7
	L91.1,15.3h15.1v1.9H88.9z M116.9,17.3v-2.7L132,1.9h-15.1V0h17.3v2.7l-15.1,12.7h15.1v1.9H116.9z"/>
<g>
	
		<radialGradient id="SVGID_2_" cx="-592.6359" cy="423.7519" r="1" gradientTransform="matrix(112.4275 -1.8672 -6.8535 -412.6671 69535.6406 173812.1094)" gradientUnits="userSpaceOnUse">
		<stop  offset="0" style="stop-color:#F7F7F7"/>
		<stop  offset="1" style="stop-color:#30A8DF"/>
	</radialGradient>
	<path class="st1" d="M0,53.6V24.8h22.8c1.3,0,2.5,0.5,3.4,1.4c0.9,0.9,1.4,2.1,1.4,3.4v6.1c0,0.4-0.1,0.7-0.2,1.1
		c-0.1,0.3-0.2,0.7-0.4,1c0.6,0.9,1,1.6,1.3,2.3c0.3,0.6,0.4,1.3,0.4,2v6.7c0,1.3-0.5,2.5-1.4,3.4c-0.9,0.9-2.1,1.4-3.4,1.4H0z
		 M4.8,50.4H24c0.4,0,0.8-0.1,1.1-0.4c0.3-0.3,0.5-0.7,0.5-1.1v-6.7c0-0.4-0.2-0.8-0.5-1.1c-0.3-0.3-0.7-0.5-1.1-0.5H4.8
		c-0.4,0-0.8,0.2-1.1,0.5c-0.3,0.3-0.4,0.7-0.4,1.1v6.7c0,0.4,0.1,0.8,0.4,1.1C4,50.2,4.4,50.4,4.8,50.4z M4.8,37.3h18
		c0.4,0,0.8-0.1,1.1-0.4c0.3-0.3,0.4-0.7,0.4-1.1v-6.1c0-0.4-0.1-0.8-0.4-1.1c-0.3-0.3-0.7-0.5-1.1-0.5h-18c-0.4,0-0.8,0.2-1.1,0.5
		c-0.3,0.3-0.4,0.7-0.4,1.1v6.1c0,0.4,0.1,0.8,0.4,1.1C4,37.2,4.4,37.3,4.8,37.3z M45.8,53.6V30.4h3.3v23.2H45.8z M45.8,26.1v-3.3
		h3.3v3.3H45.8z M66.4,53.6V30.4h18.8c1.3,0,2.5,0.5,3.4,1.4c1,0.9,1.4,2.1,1.4,3.4v18.4h-3.3V35.3c0-0.4-0.2-0.8-0.5-1.1
		c-0.3-0.3-0.7-0.5-1.1-0.5H71.3c-0.4,0-0.8,0.2-1.1,0.5c-0.3,0.3-0.5,0.7-0.5,1.1v18.4H66.4z M110.8,62.8v-3.3h14.5
		c0.4,0,0.8-0.2,1.1-0.5c0.3-0.3,0.5-0.7,0.5-1.1v-4.3h-15.5c-1.3,0-2.5-0.5-3.4-1.4c-0.9-1-1.4-2.1-1.4-3.4V35.3
		c0-1.3,0.5-2.5,1.4-3.4c1-1,2.1-1.4,3.4-1.4h13.9c1.4,0,2.5,0.5,3.4,1.4c0.9,0.9,1.4,2.1,1.4,3.4v22.6c0,1.4-0.5,2.5-1.4,3.4
		c-0.9,1-2.1,1.4-3.4,1.4H110.8z M111.4,50.3h13.9c0.4,0,0.8-0.1,1.1-0.4c0.3-0.3,0.5-0.7,0.5-1.1V35.3c0-0.4-0.2-0.8-0.5-1.1
		c-0.3-0.3-0.7-0.5-1.1-0.5h-13.9c-0.4,0-0.8,0.2-1.1,0.5c-0.3,0.3-0.4,0.7-0.4,1.1v13.5c0,0.4,0.1,0.8,0.4,1.1
		C110.6,50.2,111,50.3,111.4,50.3z M151.1,53.6c-1.3,0-2.5-0.5-3.4-1.4c-0.9-1-1.4-2.1-1.4-3.4V35.3c0-1.3,0.5-2.5,1.4-3.4
		c1-1,2.1-1.4,3.4-1.4H165c1.4,0,2.5,0.5,3.4,1.4c1,0.9,1.4,2.1,1.4,3.4v13.5c0,1.3-0.5,2.5-1.4,3.4c-0.9,0.9-2.1,1.4-3.4,1.4H151.1
		z M151.1,50.3H165c0.4,0,0.8-0.1,1.1-0.4c0.3-0.3,0.5-0.7,0.5-1.1V35.3c0-0.4-0.2-0.8-0.5-1.1c-0.3-0.3-0.7-0.5-1.1-0.5h-13.9
		c-0.4,0-0.8,0.2-1.1,0.5c-0.3,0.3-0.4,0.7-0.4,1.1v13.5c0,0.4,0.1,0.8,0.4,1.1C150.3,50.2,150.7,50.3,151.1,50.3z"/>
</g>
</svg>
